<svg xmlns="http://www.w3.org/2000/svg" xmlns:xlink="http://www.w3.org/1999/xlink" width="77" height="83.2" viewBox="0 0 77 83.2"><defs><filter id="a" x="0" y="9" width="77" height="65" filterUnits="userSpaceOnUse"><feOffset input="SourceAlpha"/><feGaussianBlur stdDeviation="4" result="b"/><feFlood flood-color="#9147ff"/><feComposite operator="in" in2="b"/><feComposite in="SourceGraphic"/></filter></defs><g transform="translate(-22 -19)"><g transform="matrix(0.891, 0.454, -0.454, 0.891, 49.332, 55.8)" fill="#252525" stroke="#707070" stroke-width="1"><rect width="8" height="48" rx="4" stroke="none"/><rect x="0.5" y="0.5" width="7" height="47" rx="3.5" fill="none"/></g><g transform="translate(-3 9)"><line y1="25" x2="13" transform="translate(79.5 11.5)" fill="none" stroke="#707070" stroke-width="1"/><g transform="translate(91 10)" fill="#707070" stroke="#707070" stroke-width="1"><circle cx="1.5" cy="1.5" r="1.5" stroke="none"/><circle cx="1.5" cy="1.5" r="1" fill="none"/></g></g><g transform="translate(65.54 59.432) rotate(-27)" fill="#252525" stroke="#707070" stroke-width="1"><rect width="8" height="48" rx="4" stroke="none"/><rect x="0.5" y="0.5" width="7" height="47" rx="3.5" fill="none"/></g><g transform="translate(28 34)" fill="#252525" stroke="#707070" stroke-width="1"><rect width="65" height="53" rx="8" stroke="none"/><rect x="0.5" y="0.5" width="64" height="52" rx="7.5" fill="none"/></g><g transform="matrix(1, 0, 0, 1, 22, 19)" filter="url(#a)"><g transform="translate(12 21)" fill="#9147ff" stroke="#707070" stroke-width="1"><rect width="53" height="41" rx="8" stroke="none"/><rect x="0.5" y="0.5" width="52" height="40" rx="7.5" fill="none"/></g></g></g></svg>